#!OML:ASF G:\JayActor3\Patient Classification 1\Patient 1\Session 6\male.ASF
:FULLY-SPECIFIED
:DEGREES
363
root 37.9831 15.8114 -15.3948 0.00157772 -76.5369 3.23515
lowerback -0.370771 -2.11212 -0.00658041
upperback 3.81974 -2.87517 0.305136
thorax 4.15517 -1.45607 0.201813
lowerneck -8.59189 5.02385 8.09912
upperneck 11.2679 6.42503 -6.18804
head 5.26283 3.08219 -2.77798
rclavicle 1.14798e-014 -1.98785e-015
rhumerus -34.5828 -13.9416 -80.135
rradius 24.2895
rwrist 7.32495
rhand -17.2813 -6.59509
rfingers 7.12502
rthumb 8.96389 -36.3847
lclavicle 1.14798e-014 -1.98785e-015
lhumerus -30.2019 5.29887 87.5074
lradius 26.0425
lwrist 15.7671
lhand -16.6336 10.512
lfingers 7.12502
lthumb 9.58887 40.2738
rfemur -35.7562 6.67074 22.6011
rtibia 38.6454
rfoot -13.8168 -13.0893
rtoes -1.85191
lfemur 27.5274 7.82554 -21.3471
ltibia -5.725e-014
lfoot 8.47478 -11.3818
ltoes -5.38583
364
root 37.8292 15.8409 -15.3639 -0.290035 -76.0701 3.38934
lowerback -0.41525 -2.14624 0.0445215
upperback 3.77361 -2.92173 0.335526
thorax 4.13172 -1.47749 0.202045
lowerneck -8.60528 4.94408 8.03576
upperneck 11.6379 6.32003 -6.07867
head 5.36666 3.03318 -2.74073
rclavicle 4.32108e-014 -1.11319e-014
rhumerus -34.5406 -13.8924 -80.1357
rradius 24.3423
rwrist 7.23506
rhand -17.2884 -6.70976
rfingers 7.12502
rthumb 8.95709 -36.4996
lclavicle 4.32108e-014 -1.11319e-014
lhumerus -30.6153 5.32964 87.3221
lradius 26.1027
lwrist 15.8673
lhand -16.6456 10.692
lfingers 7.12502
lthumb 9.57731 40.4543
rfemur -34.9432 6.44169 22.6026
rtibia 38.7195
rfoot -14.2382 -13.1016
rtoes -1.29139
lfemur 27.9474 7.69003 -21.1051
ltibia 4.13472e-014
lfoot 11.0997 -10.4104
ltoes -4.32337
365
root 37.6765 15.8705 -15.3331 -0.547092 -75.5712 3.48694
lowerback -0.438414 -2.18474 0.106721
upperback 3.73606 -2.97465 0.363941
thorax 4.10445 -1.50186 0.194481
lowerneck -8.64444 4.86146 7.9696
upperneck 12.0357 6.20959 -5.96861
head 5.48341 2.98097 -2.7028
rclavicle 2.29348e-014 3.97569e-016
rhumerus -34.4816 -13.8046 -80.1746
rradius 24.4397
rwrist 7.07913
rhand -17.2803 -6.91852
rfingers 7.12502
rthumb 8.96489 -36.708
lclavicle 2.29348e-014 3.97569e-016
lhumerus -30.9847 5.34476 87.1383
lradius 26.1624
lwrist 15.9516
lhand -16.6717 10.8731
lfingers 7.12502
lthumb 9.55212 40.6366
rfemur -34.0739 6.16097 22.6167
rtibia 38.7425
rfoot -14.7038 -13.094
rtoes -0.8025
lfemur 28.3631 7.52322 -20.8567
ltibia 9.54166e-015
lfoot 13.7496 -9.25623
ltoes -3.23349
366
root 37.5262 15.8998 -15.3025 -0.673049 -75.0598 3.43998
lowerback -0.442506 -2.21547 0.212415
upperback 3.70743 -3.01866 0.393821
thorax 4.0734 -1.52053 0.165173
lowerneck -8.72394 4.7728 7.90279
upperneck 12.4598 6.08805 -5.85762
head 5.6149 2.92278 -2.66473
rclavicle 2.6339e-014 -6.36111e-015
rhumerus -34.4025 -13.7029 -80.2407
rradius 24.5754
rwrist 6.87113
rhand -17.2474 -7.15959
rfingers 7.12502
rthumb 8.99662 -36.9477
lclavicle 2.6339e-014 -6.36111e-015
lhumerus -31.2965 5.34552 86.956
lradius 26.2194
lwrist 16.0077
lhand -16.6955 11.0177
lfingers 7.12502
lthumb 9.52914 40.7822
rfemur -33.1674 5.82273 22.6716
rtibia 38.7029
rfoot -15.1589 -13.0403
rtoes -0.341385
lfemur 28.7607 7.34417 -20.5791
ltibia -6.36111e-014
lfoot 16.3794 -8.00975
ltoes -2.2413
367
root 37.3781 15.9288 -15.2722 -0.58965 -74.5428 3.17126
lowerback -0.429801 -2.23822 0.378851
upperback 3.68355 -3.05413 0.435926
thorax 4.03517 -1.53335 0.115599
lowerneck -8.82361 4.67623 7.83238
upperneck 12.8935 5.95449 -5.7478
head 5.75251 2.85829 -2.62735
rclavicle -1.66979e-014 6.55989e-015
rhumerus -34.3133 -13.5782 -80.3244
rradius 24.7475
rwrist 6.62382
rhand -17.2008 -7.38065
rfingers 7.12502
rthumb 9.0416 -37.1669
lclavicle -1.66979e-014 6.55989e-015
lhumerus -31.5565 5.36675 86.7693
lradius 26.2732
lwrist 16.0153
lhand -16.6933 11.0753
lfingers 7.12502
lthumb 9.53124 40.8397
rfemur -32.226 5.42873 22.7947
rtibia 38.5876
rfoot -15.5775 -12.9537
rtoes 0.0781687
lfemur 24.6994 7.26728 -20.1975
ltibia 8.18336
lfoot 15.764 -8.74762
ltoes -1.37163
368
root 37.2326 15.9574 -15.2421 -0.267413 -74.0251 2.64968
lowerback -0.401498 -2.24844 0.620503
upperback 3.66508 -3.07545 0.494839
thorax 3.99066 -1.53719 0.0425714
lowerneck -8.93243 4.56703 7.75417
upperneck 13.3187 5.80345 -5.63917
head 5.88824 2.78493 -2.59077
rclavicle -4.6118e-014 6.75868e-015
rhumerus -34.2238 -13.4363 -80.4171
rradius 24.9596
rwrist 6.34098
rhand -17.1392 -7.53736
rfingers 7.12502
rthumb 9.10098 -37.321
lclavicle -4.6118e-014 6.75868e-015
lhumerus -31.7742 5.38316 86.5896
lradius 26.3476
lwrist 16.0075
lhand -16.6808 11.0809
lfingers 7.12502
lthumb 9.54335 40.8448
rfemur -31.2492 4.98303 23.0006
rtibia 38.3885
rfoot -15.94 -12.8516
rtoes 0.471997
lfemur 21.5692 7.16955 -19.7217
ltibia 14.6064
lfoot 15.7905 -9.13126
ltoes -0.614597
369
root 37.0893 15.9854 -15.2124 0.327719 -73.5117 1.84308
lowerback -0.362515 -2.2437 0.950055
upperback 3.65074 -3.07976 0.576567
thorax 3.94118 -1.53038 -0.0549032
lowerneck -9.04236 4.44273 7.66618
upperneck 13.7176 5.63237 -5.53307
head 6.01497 2.70148 -2.55553
rclavicle 8.79622e-015 7.95139e-015
rhumerus -34.1349 -13.2755 -80.5151
rradius 25.21
rwrist 6.03389
rhand -17.0831 -7.64067
rfingers 7.12502
rthumb 9.15516 -37.4219
lclavicle 8.79622e-015 7.95139e-015
lhumerus -31.9513 5.4225 86.4111
lradius 26.4432
lwrist 15.9706
lhand -16.65 10.9902
lfingers 7.12502
lthumb 9.57301 40.7527
rfemur -30.2386 4.50891 23.3041
rtibia 38.1005
rfoot -16.2517 -12.7436
rtoes 0.846411
lfemur 19.2462 7.2117 -19.0869
ltibia 19.4933
lfoot 16.4461 -9.31825
ltoes 0.152105
370
root 36.9479 16.0127 -15.1828 1.11969 -72.9918 0.82036
lowerback -0.304554 -2.2285 1.35892
upperback 3.63602 -3.07205 0.673591
thorax 3.87764 -1.51571 -0.179507
lowerneck -9.13588 4.30144 7.56697
upperneck 14.0923 5.43815 -5.41698
head 6.12975 2.60748 -2.51798
rclavicle 1.47598e-014 -5.96354e-016
rhumerus -34.065 -13.0994 -80.6141
rradius 25.5055
rwrist 5.74326
rhand -16.973 -7.77362
rfingers 7.12502
rthumb 9.26135 -37.5502
lclavicle 1.47598e-014 -5.96354e-016
lhumerus -32.1135 5.45552 86.2354
lradius 26.58
lwrist 15.9422
lhand -16.6315 10.8784
lfingers 7.12502
lthumb 9.59091 40.6401
rfemur -29.1824 4.0091 23.6888
rtibia 37.7247
rfoot -16.5178 -12.6305
rtoes 1.21393
lfemur 17.2166 7.22154 -18.3888
ltibia 23.7672
lfoot 17.2651 -9.35308
ltoes 0.884997
371
root 36.8087 16.0393 -15.1532 2.06051 -72.4784 -0.36047
lowerback -0.233741 -2.19959 1.83377
upperback 3.61907 -3.04724 0.784375
thorax 3.80264 -1.49115 -0.325508
lowerneck -9.21568 4.14447 7.44465
upperneck 14.431 5.22394 -5.28985
head 6.22924 2.50392 -2.47544
rclavicle 3.02153e-014 -5.96354e-015
rhumerus -34.0093 -12.889 -80.7214
rradius 25.8491
rwrist 5.4491
rhand -16.827 -7.95856
rfingers 7.12502
rthumb 9.40231 -37.7288
lclavicle 3.02153e-014 -5.96354e-015
lhumerus -32.2609 5.49053 86.0669
lradius 26.7697
lwrist 15.9417
lhand -16.6355 10.7732
lfingers 7.12502
lthumb 9.58702 40.5351
rfemur -28.0945 3.5105 24.1395
rtibia 37.2661
rfoot -16.7481 -12.5164
rtoes 1.57269
lfemur 15.3341 7.19441 -17.6546
ltibia 27.6652
lfoot 18.1143 -9.2339
ltoes 1.35378
372
root 36.6712 16.0652 -15.1238 3.08174 -71.9729 -1.62735
lowerback -0.164714 -2.15507 2.35059
upperback 3.60834 -3.0025 0.904269
thorax 3.73472 -1.4559 -0.485168
lowerneck -9.29255 3.97479 7.30799
upperneck 14.7387 4.99186 -5.15108
head 6.31731 2.39221 -2.42866
rclavicle -1.2424e-014 1.90833e-014
rhumerus -33.9497 -12.6456 -80.8383
rradius 26.2272
rwrist 5.15117
rhand -16.6584 -8.16884
rfingers 7.12502
rthumb 9.56498 -37.9317
lclavicle -1.2424e-014 1.90833e-014
lhumerus -32.381 5.52133 85.9085
lradius 27.0081
lwrist 15.9973
lhand -16.6563 10.6668
lfingers 7.12502
lthumb 9.56693 40.4296
rfemur -26.9802 3.03203 24.6351
rtibia 36.7353
rfoot -16.9616 -12.4163
rtoes 1.91189
lfemur 13.5409 7.12615 -16.9104
ltibia 31.2806
lfoot 18.8647 -8.95944
ltoes 1.37764
373
root 36.5351 16.0901 -15.0947 4.10847 -71.4791 -2.90151
lowerback -0.104378 -2.09554 2.88062
upperback 3.60431 -2.93803 1.02747
thorax 3.67988 -1.41069 -0.648812
lowerneck -9.35391 3.79383 7.16147
upperneck 15.0084 4.74459 -5.005
head 6.39014 2.27374 -2.37964
rclavicle 3.28492e-014 -8.74653e-015
rhumerus -33.8808 -12.3646 -80.9679
rradius 26.6291
rwrist 4.84211
rhand -16.4846 -8.41364
rfingers 7.12502
rthumb 9.73264 -38.1688
lclavicle 3.28492e-014 -8.74653e-015
lhumerus -32.4807 5.53598 85.7645
lradius 27.3017
lwrist 16.1347
lhand -16.6837 10.5444
lfingers 7.12502
lthumb 9.54056 40.3084
rfemur -25.8481 2.58366 25.151
rtibia 36.1466
rfoot -17.1672 -12.3405
rtoes 2.21592
lfemur 11.8081 7.02964 -16.1817
ltibia 34.6619
lfoot 19.3989 -8.59588
ltoes 0.93173
374
root 36.4004 16.1139 -15.0664 5.09913 -71.0036 -4.13825
lowerback -0.0525145 -2.01958 3.40469
upperback 3.60642 -2.8515 1.14856
thorax 3.63853 -1.35474 -0.811275
lowerneck -9.40137 3.60448 7.01237
upperneck 15.2457 4.48536 -4.85413
head 6.45017 2.15019 -2.32997
rclavicle 1.93318e-014 -1.19271e-014
rhumerus -33.7972 -12.0482 -81.1155
rradius 27.0392
rwrist 4.49789
rhand -16.373 -8.59293
rfingers 7.12502
rthumb 9.84027 -38.343
lclavicle 1.93318e-014 -1.19271e-014
lhumerus -32.5747 5.48531 85.6507
lradius 27.6752
lwrist 16.4224
lhand -16.7697 10.531
lfingers 7.12502
lthumb 9.4576 40.2988
rfemur -24.7095 2.17671 25.6725
rtibia 35.517
rfoot -17.3764 -12.2913
rtoes 2.49554
lfemur 10.1249 6.92065 -15.4804
ltibia 37.8337
lfoot 19.5637 -8.22169
ltoes -0.0254723
375
root 36.2669 16.1365 -15.039 6.0171 -70.554 -5.29723
lowerback -0.0110595 -1.93042 3.89741
upperback 3.61571 -2.74708 1.26755
thorax 3.61415 -1.2907 -0.958644
lowerneck -9.43336 3.4142 6.86746
upperneck 15.45 4.22509 -4.70823
head 6.49807 2.02646 -2.28284
rclavicle 1.15295e-014 -8.34896e-015
rhumerus -33.6881 -11.684 -81.2816
rradius 27.4383
rwrist 4.13473
rhand -16.3555 -8.68118
rfingers 7.12502
rthumb 9.8572 -38.4304
lclavicle 1.15295e-014 -8.34896e-015
lhumerus -32.6506 5.41429 85.5569
lradius 28.1002
lwrist 16.8399
lhand -16.9167 10.5627
lfingers 7.12502
lthumb 9.3157 40.3369
rfemur -23.5781 1.80866 26.1846
rtibia 34.8662
rfoot -17.5887 -12.2667
rtoes 2.73997
lfemur 8.48346 6.8139 -14.821
ltibia 40.8094
lfoot 19.245 -7.91806
ltoes -1.308
